inDegrees=no
DataType=double
version=3
OpenSimVersion=4.4-2022-10-11-798caa840
endheader
time	elv_angle	shoulder_elv	shoulder_rot	elbow_flexion	pro_sup	deviation	flexion
2.4020851434	0.3718090653	1.5208593607	0.4363323152	1.8315308094	0.0000000000	0.0000000000	0.0000000000
2.4062554301	0.3718090653	1.5208593607	0.4363323152	1.8315308094	0.0000000000	0.0000000000	0.0000000000
2.4104257168	0.3718090653	1.5208593607	0.4363323152	1.8315308094	0.0000000000	0.0000000000	0.0000000000
2.4145960035	0.3718090653	1.5208593607	0.4363323152	1.8315308094	0.0000000000	0.0000000000	0.0000000000
2.4187662902	0.3718090653	1.5208593607	0.4363323152	1.8315308094	0.0000000000	0.0000000000	0.0000000000
2.4229365769	0.3718090653	1.5208593607	0.4363323152	1.8315308094	0.0000000000	0.0000000000	0.0000000000
2.4271068636	0.3718090653	1.5208593607	0.4363323152	1.8315308094	0.0000000000	0.0000000000	0.0000000000
2.4312771503	0.3718090653	1.5208593607	0.4363323152	1.8315308094	0.0000000000	0.0000000000	0.0000000000
2.4354474370	0.3718090653	1.5208593607	0.4363323152	1.8315308094	0.0000000000	0.0000000000	0.0000000000
2.4396177237	0.3718090653	1.5208593607	0.4363323152	1.8315308094	0.0000000000	0.0000000000	0.0000000000
2.4437880104	0.3718090653	1.5208593607	0.4363323152	1.8315308094	0.0000000000	0.0000000000	0.0000000000
2.4479582971	0.3718090653	1.5208593607	0.4363323152	1.8315308094	0.0000000000	0.0000000000	0.0000000000
2.4521285838	0.3718090653	1.5208593607	0.4363323152	1.8315308094	0.0000000000	0.0000000000	0.0000000000
2.4562988705	0.3718090653	1.5208593607	0.4363323152	1.8315308094	0.0000000000	0.0000000000	0.0000000000
2.4604691573	0.3718090653	1.5208593607	0.4363323152	1.8315308094	0.0000000000	0.0000000000	0.0000000000
2.4646394440	0.3718090653	1.5208593607	0.4363323152	1.8315308094	0.0000000000	0.0000000000	0.0000000000
2.4688097307	0.3718090653	1.5208593607	0.4363323152	1.8315308094	0.0000000000	0.0000000000	0.0000000000
2.4729800174	0.3718090653	1.5208593607	0.4363323152	1.8315308094	0.0000000000	0.0000000000	0.0000000000
2.4771503041	0.3718090653	1.5208593607	0.4363323152	1.8315308094	0.0000000000	0.0000000000	0.0000000000
2.4813205908	0.3718090653	1.5208593607	0.4363323152	1.8315308094	0.0000000000	0.0000000000	0.0000000000
2.4854908775	0.3718090653	1.5208593607	0.4363323152	1.8315308094	0.0000000000	0.0000000000	0.0000000000
2.4896611642	0.3718090653	1.5208593607	0.4363323152	1.8315308094	0.0000000000	0.0000000000	0.0000000000
2.4938314509	0.3718090653	1.5208593607	0.4363323152	1.8315308094	0.0000000000	0.0000000000	0.0000000000
2.4980017376	0.3718090653	1.5208593607	0.4363323152	1.8315308094	0.0000000000	0.0000000000	0.0000000000
2.5021720243	0.3718090653	1.5208593607	0.4363323152	1.8315308094	0.0000000000	0.0000000000	0.0000000000
2.5063423110	0.3718090653	1.5208593607	0.4363323152	1.8315308094	0.0000000000	0.0000000000	0.0000000000
2.5105125977	0.3718090653	1.5208593607	0.4363323152	1.8315308094	0.0000000000	0.0000000000	0.0000000000
2.5146828844	0.3718090653	1.5208593607	0.4363323152	1.8315308094	0.0000000000	0.0000000000	0.0000000000
2.5188531712	0.3718090653	1.5208593607	0.4363323152	1.8315308094	0.0000000000	0.0000000000	0.0000000000
2.5230234579	0.3718090653	1.5208593607	0.4363323152	1.8315308094	0.0000000000	0.0000000000	0.0000000000
2.5271937446	0.3718090653	1.5208593607	0.4363323152	1.8315308094	0.0000000000	0.0000000000	0.0000000000
2.5313640313	0.3718090653	1.5208593607	0.4363323152	1.8315308094	0.0000000000	0.0000000000	0.0000000000
2.5355343180	0.3718090653	1.5208593607	0.4363323152	1.8315308094	0.0000000000	0.0000000000	0.0000000000
2.5397046047	0.3718090653	1.5208593607	0.4363323152	1.8315308094	0.0000000000	0.0000000000	0.0000000000
2.5438748914	0.3718090653	1.5208593607	0.4363323152	1.8315308094	0.0000000000	0.0000000000	0.0000000000
2.5480451781	0.3718090653	1.5208593607	0.4363323152	1.8315308094	0.0000000000	0.0000000000	0.0000000000
2.5522154648	0.3718090653	1.5208593607	0.4363323152	1.8315308094	0.0000000000	0.0000000000	0.0000000000
2.5563857515	0.3718090653	1.5208593607	0.4363323152	1.8315308094	0.0000000000	0.0000000000	0.0000000000
2.5605560382	0.3718090653	1.5208593607	0.4363323152	1.8315308094	0.0000000000	0.0000000000	0.0000000000
2.5647263249	0.3718090653	1.5208593607	0.4363323152	1.8315308094	0.0000000000	0.0000000000	0.0000000000
2.5688966116	0.3718090653	1.5208593607	0.4363323152	1.8315308094	0.0000000000	0.0000000000	0.0000000000
2.5730668983	0.3718090653	1.5208593607	0.4363323152	1.8315308094	0.0000000000	0.0000000000	0.0000000000
2.5772371851	0.3718090653	1.5208593607	0.4363323152	1.8315308094	0.0000000000	0.0000000000	0.0000000000
2.5814074718	0.3718090653	1.5208593607	0.4363323152	1.8315308094	0.0000000000	0.0000000000	0.0000000000
2.5855777585	0.3718090653	1.5208593607	0.4363323152	1.8315308094	0.0000000000	0.0000000000	0.0000000000
2.5897480452	0.3718090653	1.5208593607	0.4363323152	1.8315308094	0.0000000000	0.0000000000	0.0000000000
2.5939183319	0.3718090653	1.5208593607	0.4363323152	1.8315308094	0.0000000000	0.0000000000	0.0000000000
2.5980886186	0.3718090653	1.5208593607	0.4363323152	1.8315308094	0.0000000000	0.0000000000	0.0000000000
2.6022589053	0.3718090653	1.5208593607	0.4363323152	1.8315308094	0.0000000000	0.0000000000	0.0000000000
2.6064291920	0.3718090653	1.5208593607	0.4363323152	1.8315308094	0.0000000000	0.0000000000	0.0000000000
2.6105994787	0.3718090653	1.5208593607	0.4363323152	1.8315308094	0.0000000000	0.0000000000	0.0000000000
2.6147697654	0.3718090653	1.5208593607	0.4363323152	1.8315308094	0.0000000000	0.0000000000	0.0000000000
2.6189400521	0.3718090653	1.5208593607	0.4363323152	1.8315308094	0.0000000000	0.0000000000	0.0000000000
2.6231103388	0.3718090653	1.5208593607	0.4363323152	1.8315308094	0.0000000000	0.0000000000	0.0000000000
2.6272806255	0.3718090653	1.5208593607	0.4363323152	1.8315308094	0.0000000000	0.0000000000	0.0000000000
2.6314509123	0.3718090653	1.5208593607	0.4363323152	1.8315308094	0.0000000000	0.0000000000	0.0000000000
2.6356211990	0.3718090653	1.5208593607	0.4363323152	1.8315308094	0.0000000000	0.0000000000	0.0000000000
2.6397914857	0.3718090653	1.5208593607	0.4363323152	1.8315308094	0.0000000000	0.0000000000	0.0000000000
2.6439617724	0.3718090653	1.5208593607	0.4363323152	1.8315308094	0.0000000000	0.0000000000	0.0000000000
2.6481320591	0.3718090653	1.5208593607	0.4363323152	1.8315308094	0.0000000000	0.0000000000	0.0000000000
2.6523023458	0.3718090653	1.5208593607	0.4363323152	1.8315308094	0.0000000000	0.0000000000	0.0000000000
2.6564726325	0.3718111813	1.5208575726	0.4363323152	1.8315297365	0.0000000000	0.0000000000	0.0000000000
2.6606429192	0.3718253970	1.5208443403	0.4363323152	1.8315224648	0.0000000000	0.0000000000	0.0000000000
2.6648132059	0.3718633652	1.5208092928	0.4363323152	1.8315030336	0.0000000000	0.0000000000	0.0000000000
2.6689834926	0.3719360530	1.5207421780	0.4363323152	1.8314659595	0.0000000000	0.0000000000	0.0000000000
2.6731537793	0.3720539212	1.5206334591	0.4363323152	1.8314056396	0.0000000000	0.0000000000	0.0000000000
2.6773240660	0.3722268641	1.5204737186	0.4363323152	1.8313170671	0.0000000000	0.0000000000	0.0000000000
2.6814943527	0.3724638224	1.5202549696	0.4363323152	1.8311958313	0.0000000000	0.0000000000	0.0000000000
2.6856646394	0.3727737963	1.5199689865	0.4363323152	1.8310370445	0.0000000000	0.0000000000	0.0000000000
2.6898349262	0.3731648326	1.5196082592	0.4363323152	1.8308366537	0.0000000000	0.0000000000	0.0000000000
2.6940052129	0.3736445606	1.5191657543	0.4363323152	1.8305907249	0.0000000000	0.0000000000	0.0000000000
2.6981754996	0.3742201030	1.5186351538	0.4363323152	1.8302954435	0.0000000000	0.0000000000	0.0000000000
2.7023457863	0.3748981059	1.5180103779	0.4363323152	1.8299469948	0.0000000000	0.0000000000	0.0000000000
2.7065160730	0.3756847680	1.5172857046	0.4363323152	1.8295423985	0.0000000000	0.0000000000	0.0000000000
2.7106863597	0.3765859008	1.5164561272	0.4363323152	1.8290781975	0.0000000000	0.0000000000	0.0000000000
2.7148566464	0.3776065409	1.5155171156	0.4363323152	1.8285515308	0.0000000000	0.0000000000	0.0000000000
2.7190269331	0.3787517846	1.5144643784	0.4363323152	1.8279595375	0.0000000000	0.0000000000	0.0000000000
2.7231972198	0.3800259233	1.5132939816	0.4363323152	1.8272995949	0.0000000000	0.0000000000	0.0000000000
2.7273675065	0.3814328611	1.5120029449	0.4363323152	1.8265693188	0.0000000000	0.0000000000	0.0000000000
2.7315377932	0.3829764128	1.5105879307	0.4363323152	1.8257662058	0.0000000000	0.0000000000	0.0000000000
2.7357080799	0.3846597970	1.5090466738	0.4363323152	1.8248879910	0.0000000000	0.0000000000	0.0000000000
2.7398783666	0.3864857554	1.5073770285	0.4363323152	1.8239326477	0.0000000000	0.0000000000	0.0000000000
2.7440486533	0.3884570301	1.5055769682	0.4363323152	1.8228981495	0.0000000000	0.0000000000	0.0000000000
2.7482189401	0.3905755281	1.5036454201	0.4363323152	1.8217829466	0.0000000000	0.0000000000	0.0000000000
2.7523892268	0.3928432465	1.5015813112	0.4363323152	1.8205852509	0.0000000000	0.0000000000	0.0000000000
2.7565595135	0.3952617347	1.4993839264	0.4363323152	1.8193030357	0.0000000000	0.0000000000	0.0000000000
2.7607298002	0.3978320956	1.4970530272	0.4363323152	1.8179353476	0.0000000000	0.0000000000	0.0000000000
2.7649000869	0.4005551636	1.4945888519	0.4363323152	1.8164805174	0.0000000000	0.0000000000	0.0000000000
2.7690703736	0.4034316838	1.4919917583	0.4363323152	1.8149374723	0.0000000000	0.0000000000	0.0000000000
2.7732406603	0.4064618647	1.4892624617	0.4363323152	1.8133049011	0.0000000000	0.0000000000	0.0000000000
2.7774109470	0.4096455276	1.4864023924	0.4363323152	1.8115823269	0.0000000000	0.0000000000	0.0000000000
2.7815812337	0.4129826725	1.4834126234	0.4363323152	1.8097679615	0.0000000000	0.0000000000	0.0000000000
2.7857515204	0.4164725542	1.4802953005	0.4363323152	1.8078620434	0.0000000000	0.0000000000	0.0000000000
2.7899218071	0.4201143980	1.4770523310	0.4363323152	1.8058631420	0.0000000000	0.0000000000	0.0000000000
2.7940920938	0.4239069521	1.4736865759	0.4363323152	1.8037714958	0.0000000000	0.0000000000	0.0000000000
2.7982623805	0.4278490245	1.4702001810	0.4363323152	1.8015862703	0.0000000000	0.0000000000	0.0000000000
2.8024326672	0.4319387972	1.4665968418	0.4363323152	1.7993074656	0.0000000000	0.0000000000	0.0000000000
2.8066029540	0.4361744225	1.4628795385	0.4363323152	1.7969353199	0.0000000000	0.0000000000	0.0000000000
2.8107732407	0.4405538440	1.4590522051	0.4363323152	1.7944694757	0.0000000000	0.0000000000	0.0000000000
2.8149435274	0.4450745583	1.4551185369	0.4363323152	1.7919105291	0.0000000000	0.0000000000	0.0000000000
2.8191138141	0.4497339129	1.4510829449	0.4363323152	1.7892589569	0.0000000000	0.0000000000	0.0000000000
2.8232841008	0.4545290768	1.4469498396	0.4363323152	1.7865151167	0.0000000000	0.0000000000	0.0000000000
2.8274543875	0.4594567716	1.4427241087	0.4363323152	1.7836802006	0.0000000000	0.0000000000	0.0000000000
2.8316246742	0.4645136893	1.4384105206	0.4363323152	1.7807551622	0.0000000000	0.0000000000	0.0000000000
2.8357949609	0.4696961045	1.4340146780	0.4363323152	1.7777409554	0.0000000000	0.0000000000	0.0000000000
